# xmcd
#
# Track frame offsets:
# 152
# 17375
# 35148
# 57056
# 77724
# 98526
# 118858
# 148721
# 169503
# 195728
# 219525
# 241584
# 259908
# 278650
# 298867
#
# Disc length: 4236 seconds
#
#
# Revision: 1
# Processed by: cddbd v1.5.1PL2 Copyright (c) Steve Scherf et al.
# Submitted via: FreeRIP 2.944 
#
DISCID=d0108a0f
DTITLE=Mana - Grandes Exitos de Mana
DYEAR=2002
DGENRE=Blues
TTITLE0=Se me olvido otra vez
TTITLE1=Te solte la rienda
TTITLE2=Vivir sin aire
TTITLE3=Me vale
TTITLE4=De pies a cabeza
TTITLE5=Como te deseo
TTITLE6=No ha parado de llover
TTITLE7=Perdido en un barco
TTITLE8=En el muelle de San Blas
TTITLE9=Clavado en un bar
TTITLE10=Hechicera
TTITLE11=Como duele en los labios
TTITLE12=Rayando el sol
TTITLE13=Oye mi amor
TTITLE14=Dejame entrar
EXTD=
EXTT0=
EXTT1=
EXTT2=
EXTT3=
EXTT4=
EXTT5=
EXTT6=
EXTT7=
EXTT8=
EXTT9=
EXTT10=
EXTT11=
EXTT12=
EXTT13=
EXTT14=
PLAYORDER=
